<svg width="1439" height="1000" viewBox="0 0 1439 1000" fill="none" xmlns="http://www.w3.org/2000/svg">
<path d="M782.786 343.77C782.786 339.963 784.669 336.67 787.446 334.87C776.065 323.361 769 310.051 769 291.053C769 235.055 831.013 224.027 831.013 198.269C831.013 224.027 893.025 235.055 893.025 291.053C893.025 310.049 885.962 323.359 874.579 334.868C877.356 336.668 879.239 339.96 879.239 343.77C879.239 349.298 875.304 353.77 870.348 354.066V409.395C875.304 409.689 879.239 414.163 879.239 419.691C879.239 425.22 875.304 429.698 870.348 429.992V458.88H986.599V416.745H999.942V387.734H1001.05C977.527 362.522 963.119 333.217 963.119 292.306C963.119 176.829 1079.18 145.512 1100.61 96.9632C1096.85 97.9937 1092.97 98.5513 1089.06 98.5513C1074.45 98.5513 1060.81 91.3913 1051.63 78.9074C1048.43 74.5564 1045.89 69.7113 1044.07 64.5028L1043.78 63.6934L1044.44 64.1663C1052.17 69.6748 1061.13 72.5876 1070.38 72.5876C1081.22 72.5876 1091.85 68.4404 1100.31 60.9113C1116.38 46.5893 1122.21 22.6944 1114.84 1.44894L1114.55 0.641418L1115.21 1.11247C1119.46 4.14452 1123.23 7.89179 1126.44 12.2486C1134.53 23.2462 1138.24 37.051 1136.89 51.123C1135.55 65.195 1129.3 77.848 1119.31 86.75C1115.44 90.1935 1111.11 92.8987 1106.53 94.8694C1125.48 144.634 1244.88 175.177 1244.88 292.304C1244.88 333.213 1230.48 362.52 1206.96 387.732H1208.06V416.743H1221.4V458.878H1337.66V429.862C1332.7 429.567 1328.75 425.091 1328.75 419.566C1328.75 414.038 1332.7 409.562 1337.66 409.27V353.937C1332.7 353.643 1328.75 349.169 1328.75 343.641C1328.75 339.836 1330.64 336.545 1333.42 334.747C1322.04 323.242 1314.98 309.931 1314.98 290.933C1314.98 234.936 1376.99 223.9 1376.99 198.14C1376.99 223.898 1439 234.936 1439 290.933C1439 309.933 1431.93 323.244 1420.55 334.747C1423.33 336.547 1425.22 339.836 1425.22 343.641C1425.22 349.167 1421.27 353.641 1416.32 353.937V409.27C1421.27 409.566 1425.22 414.04 1425.22 419.566C1425.22 425.089 1421.27 429.565 1416.32 429.862V458.878H1416.37V1000H1339.13V576.555C1339.13 545.906 1299.23 525.826 1299.23 525.826C1299.23 525.826 1259.34 545.904 1259.34 576.555V1000H1159.94V544.985C1159.94 502.01 1104 473.856 1104 473.856C1104 473.856 1048.06 502.011 1048.06 544.985V1000H948.659V576.555C948.659 545.906 908.769 525.826 908.769 525.826C908.769 525.826 868.876 545.904 868.876 576.555V1000H791.628V458.88H791.678V429.992C786.725 429.7 782.784 425.222 782.784 419.691C782.784 414.163 786.725 409.687 791.678 409.395V354.068C786.727 353.774 782.786 349.298 782.786 343.77Z" fill="#E2E0D2"/>
<path d="M13.7862 343.77C13.7862 339.963 15.6691 336.67 18.4462 334.87C7.06519 323.361 0 310.051 0 291.053C0 235.055 62.0125 224.027 62.0125 198.269C62.0125 224.027 124.025 235.055 124.025 291.053C124.025 310.049 116.962 323.359 105.579 334.868C108.356 336.668 110.239 339.96 110.239 343.77C110.239 349.298 106.304 353.77 101.348 354.066V409.395C106.304 409.689 110.239 414.163 110.239 419.691C110.239 425.22 106.304 429.698 101.348 429.992V458.88H217.599V416.745H230.942V387.734H232.047C208.527 362.522 194.119 333.217 194.119 292.306C194.119 176.829 310.181 145.512 331.612 96.9632C327.848 97.9937 323.971 98.5513 320.06 98.5513C305.451 98.5513 291.807 91.3913 282.626 78.9074C279.433 74.5564 276.889 69.7113 275.065 64.5028L274.782 63.6934L275.444 64.1663C283.166 69.6748 292.135 72.5876 301.38 72.5876C312.225 72.5876 322.853 68.4404 331.31 60.9113C347.376 46.5893 353.215 22.6944 345.835 1.44894L345.554 0.641418L346.214 1.11247C350.459 4.14452 354.235 7.89179 357.436 12.2486C365.525 23.2462 369.24 37.051 367.893 51.123C366.549 65.195 360.301 77.848 350.308 86.75C346.443 90.1935 342.111 92.8987 337.526 94.8694C356.476 144.634 475.883 175.177 475.883 292.304C475.883 333.213 461.48 362.52 437.958 387.732H439.064V416.743H452.403V458.878H568.657V429.862C563.696 429.567 559.749 425.091 559.749 419.566C559.749 414.038 563.696 409.562 568.657 409.27V353.937C563.696 353.643 559.749 349.169 559.749 343.641C559.749 339.836 561.639 336.545 564.421 334.747C553.044 323.242 545.975 309.931 545.975 290.933C545.975 234.936 607.995 223.9 607.995 198.14C607.995 223.898 670 234.936 670 290.933C670 309.933 662.931 323.244 651.55 334.747C654.331 336.547 656.217 339.836 656.217 343.641C656.217 349.167 652.273 353.641 647.32 353.937V409.27C652.273 409.566 656.217 414.04 656.217 419.566C656.217 425.089 652.273 429.565 647.32 429.862V458.878H647.374V1000H570.126V576.555C570.126 545.906 530.233 525.826 530.233 525.826C530.233 525.826 490.343 545.904 490.343 576.555V1000H390.939V544.985C390.939 502.01 334.999 473.856 334.999 473.856C334.999 473.856 279.063 502.011 279.063 544.985V1000H179.659V576.555C179.659 545.906 139.769 525.826 139.769 525.826C139.769 525.826 99.876 545.904 99.876 576.555V1000H22.6276V458.88H22.6783V429.992C17.7249 429.7 13.7844 425.222 13.7844 419.691C13.7844 414.163 17.7249 409.687 22.6783 409.395V354.068C17.7266 353.774 13.7862 349.298 13.7862 343.77Z" fill="#E2E0D2"/>
</svg>
